<mxfile host="app.diagrams.net" modified="2024-05-02T06:40:53.278Z" agent="Mozilla/5.0 (Windows NT 10.0; Win64; x64) AppleWebKit/537.36 (KHTML, like Gecko) Chrome/124.0.0.0 Safari/537.36" etag="TnC6TvrXWJITu7W2UdB0" version="24.3.1" type="github">
  <diagram name="Page-1" id="pYDKRhPrYJ4WdY8msNiv">
    <mxGraphModel dx="880" dy="460" grid="1" gridSize="10" guides="1" tooltips="1" connect="1" arrows="1" fold="1" page="1" pageScale="1" pageWidth="850" pageHeight="1100" math="0" shadow="0">
      <root>
        <mxCell id="0" />
        <mxCell id="1" parent="0" />
        <mxCell id="GKldJ9haFm8FNP-T8m_G-2" value="signin/signout" style="ellipse;whiteSpace=wrap;html=1;" vertex="1" parent="1">
          <mxGeometry x="285" y="160" width="140" height="70" as="geometry" />
        </mxCell>
        <mxCell id="GKldJ9haFm8FNP-T8m_G-3" value="send notifications" style="ellipse;whiteSpace=wrap;html=1;" vertex="1" parent="1">
          <mxGeometry x="500" y="170" width="140" height="70" as="geometry" />
        </mxCell>
        <mxCell id="GKldJ9haFm8FNP-T8m_G-4" value="Raise invoice" style="ellipse;whiteSpace=wrap;html=1;" vertex="1" parent="1">
          <mxGeometry x="310" y="310" width="140" height="70" as="geometry" />
        </mxCell>
        <mxCell id="GKldJ9haFm8FNP-T8m_G-5" value="manage stock" style="ellipse;whiteSpace=wrap;html=1;" vertex="1" parent="1">
          <mxGeometry x="630" y="270" width="140" height="70" as="geometry" />
        </mxCell>
        <mxCell id="GKldJ9haFm8FNP-T8m_G-6" value="admin" style="shape=umlActor;html=1;verticalLabelPosition=bottom;verticalAlign=top;align=center;" vertex="1" parent="1">
          <mxGeometry x="130" y="90" width="30" height="60" as="geometry" />
        </mxCell>
        <mxCell id="GKldJ9haFm8FNP-T8m_G-7" value="supplier" style="shape=umlActor;html=1;verticalLabelPosition=bottom;verticalAlign=top;align=center;" vertex="1" parent="1">
          <mxGeometry x="130" y="370" width="30" height="60" as="geometry" />
        </mxCell>
        <mxCell id="GKldJ9haFm8FNP-T8m_G-9" value="notification center" style="shape=umlActor;html=1;verticalLabelPosition=bottom;verticalAlign=top;align=center;" vertex="1" parent="1">
          <mxGeometry x="710" y="80" width="30" height="60" as="geometry" />
        </mxCell>
        <mxCell id="GKldJ9haFm8FNP-T8m_G-10" value="inventory manager" style="shape=umlActor;html=1;verticalLabelPosition=bottom;verticalAlign=top;align=center;" vertex="1" parent="1">
          <mxGeometry x="770" y="360" width="30" height="60" as="geometry" />
        </mxCell>
        <mxCell id="GKldJ9haFm8FNP-T8m_G-11" value="" style="edgeStyle=none;html=1;endArrow=none;verticalAlign=bottom;rounded=0;exitX=0.467;exitY=0.617;exitDx=0;exitDy=0;exitPerimeter=0;entryX=0.014;entryY=0.286;entryDx=0;entryDy=0;entryPerimeter=0;" edge="1" parent="1" source="GKldJ9haFm8FNP-T8m_G-6" target="GKldJ9haFm8FNP-T8m_G-2">
          <mxGeometry width="160" relative="1" as="geometry">
            <mxPoint x="360" y="280" as="sourcePoint" />
            <mxPoint x="520" y="280" as="targetPoint" />
          </mxGeometry>
        </mxCell>
        <mxCell id="GKldJ9haFm8FNP-T8m_G-12" value="" style="edgeStyle=none;html=1;endArrow=none;verticalAlign=bottom;rounded=0;exitX=0.5;exitY=0.733;exitDx=0;exitDy=0;exitPerimeter=0;entryX=0.086;entryY=0.857;entryDx=0;entryDy=0;entryPerimeter=0;" edge="1" parent="1" source="GKldJ9haFm8FNP-T8m_G-7" target="GKldJ9haFm8FNP-T8m_G-2">
          <mxGeometry width="160" relative="1" as="geometry">
            <mxPoint x="360" y="280" as="sourcePoint" />
            <mxPoint x="520" y="280" as="targetPoint" />
          </mxGeometry>
        </mxCell>
        <mxCell id="GKldJ9haFm8FNP-T8m_G-13" value="" style="edgeStyle=none;html=1;endArrow=none;verticalAlign=bottom;rounded=0;entryX=0;entryY=1;entryDx=0;entryDy=0;entryPerimeter=0;exitX=0.936;exitY=0.8;exitDx=0;exitDy=0;exitPerimeter=0;" edge="1" parent="1" source="GKldJ9haFm8FNP-T8m_G-2" target="GKldJ9haFm8FNP-T8m_G-10">
          <mxGeometry width="160" relative="1" as="geometry">
            <mxPoint x="360" y="280" as="sourcePoint" />
            <mxPoint x="520" y="280" as="targetPoint" />
          </mxGeometry>
        </mxCell>
        <mxCell id="GKldJ9haFm8FNP-T8m_G-14" value="" style="edgeStyle=none;html=1;endArrow=none;verticalAlign=bottom;rounded=0;entryX=0.367;entryY=0.867;entryDx=0;entryDy=0;entryPerimeter=0;exitX=0.571;exitY=0;exitDx=0;exitDy=0;exitPerimeter=0;" edge="1" parent="1" source="GKldJ9haFm8FNP-T8m_G-3" target="GKldJ9haFm8FNP-T8m_G-9">
          <mxGeometry width="160" relative="1" as="geometry">
            <mxPoint x="360" y="280" as="sourcePoint" />
            <mxPoint x="520" y="280" as="targetPoint" />
          </mxGeometry>
        </mxCell>
        <mxCell id="GKldJ9haFm8FNP-T8m_G-15" value="" style="edgeStyle=none;html=1;endArrow=none;verticalAlign=bottom;rounded=0;exitX=0.933;exitY=0.883;exitDx=0;exitDy=0;exitPerimeter=0;entryX=0;entryY=1;entryDx=0;entryDy=0;" edge="1" parent="1" source="GKldJ9haFm8FNP-T8m_G-7" target="GKldJ9haFm8FNP-T8m_G-4">
          <mxGeometry width="160" relative="1" as="geometry">
            <mxPoint x="360" y="280" as="sourcePoint" />
            <mxPoint x="520" y="280" as="targetPoint" />
          </mxGeometry>
        </mxCell>
        <mxCell id="GKldJ9haFm8FNP-T8m_G-16" value="" style="edgeStyle=none;html=1;endArrow=none;verticalAlign=bottom;rounded=0;entryX=0.3;entryY=0.267;entryDx=0;entryDy=0;entryPerimeter=0;exitX=0.686;exitY=0.943;exitDx=0;exitDy=0;exitPerimeter=0;" edge="1" parent="1" source="GKldJ9haFm8FNP-T8m_G-5" target="GKldJ9haFm8FNP-T8m_G-10">
          <mxGeometry width="160" relative="1" as="geometry">
            <mxPoint x="360" y="280" as="sourcePoint" />
            <mxPoint x="520" y="280" as="targetPoint" />
          </mxGeometry>
        </mxCell>
        <mxCell id="GKldJ9haFm8FNP-T8m_G-17" value="" style="edgeStyle=none;html=1;endArrow=none;verticalAlign=bottom;rounded=0;exitX=0.7;exitY=0.683;exitDx=0;exitDy=0;exitPerimeter=0;entryX=0;entryY=1;entryDx=0;entryDy=0;" edge="1" parent="1" source="GKldJ9haFm8FNP-T8m_G-6" target="GKldJ9haFm8FNP-T8m_G-5">
          <mxGeometry width="160" relative="1" as="geometry">
            <mxPoint x="360" y="280" as="sourcePoint" />
            <mxPoint x="520" y="280" as="targetPoint" />
          </mxGeometry>
        </mxCell>
        <mxCell id="GKldJ9haFm8FNP-T8m_G-19" value="pay supplier" style="ellipse;whiteSpace=wrap;html=1;" vertex="1" parent="1">
          <mxGeometry x="410" y="490" width="140" height="70" as="geometry" />
        </mxCell>
        <mxCell id="GKldJ9haFm8FNP-T8m_G-20" value="view invocie" style="ellipse;whiteSpace=wrap;html=1;" vertex="1" parent="1">
          <mxGeometry x="420" y="380" width="140" height="70" as="geometry" />
        </mxCell>
        <mxCell id="GKldJ9haFm8FNP-T8m_G-21" value="&amp;lt;&amp;lt;include&amp;gt;&amp;gt;" style="edgeStyle=none;html=1;endArrow=open;verticalAlign=bottom;dashed=1;labelBackgroundColor=none;rounded=0;exitX=0.593;exitY=0;exitDx=0;exitDy=0;exitPerimeter=0;" edge="1" parent="1" source="GKldJ9haFm8FNP-T8m_G-19">
          <mxGeometry width="160" relative="1" as="geometry">
            <mxPoint x="360" y="380" as="sourcePoint" />
            <mxPoint x="500" y="450" as="targetPoint" />
          </mxGeometry>
        </mxCell>
        <mxCell id="GKldJ9haFm8FNP-T8m_G-22" value="" style="edgeStyle=none;html=1;endArrow=none;verticalAlign=bottom;rounded=0;exitX=0.6;exitY=0.817;exitDx=0;exitDy=0;exitPerimeter=0;" edge="1" parent="1" source="GKldJ9haFm8FNP-T8m_G-7" target="GKldJ9haFm8FNP-T8m_G-20">
          <mxGeometry width="160" relative="1" as="geometry">
            <mxPoint x="360" y="380" as="sourcePoint" />
            <mxPoint x="520" y="380" as="targetPoint" />
          </mxGeometry>
        </mxCell>
        <mxCell id="GKldJ9haFm8FNP-T8m_G-23" value="" style="edgeStyle=none;html=1;endArrow=none;verticalAlign=bottom;rounded=0;exitX=0.767;exitY=0.733;exitDx=0;exitDy=0;exitPerimeter=0;entryX=0.571;entryY=-0.071;entryDx=0;entryDy=0;entryPerimeter=0;" edge="1" parent="1" source="GKldJ9haFm8FNP-T8m_G-6" target="GKldJ9haFm8FNP-T8m_G-20">
          <mxGeometry width="160" relative="1" as="geometry">
            <mxPoint x="360" y="280" as="sourcePoint" />
            <mxPoint x="520" y="280" as="targetPoint" />
          </mxGeometry>
        </mxCell>
        <mxCell id="GKldJ9haFm8FNP-T8m_G-25" value="&amp;lt;&amp;lt;extend&amp;gt;&amp;gt;" style="edgeStyle=none;html=1;startArrow=open;endArrow=none;startSize=12;verticalAlign=bottom;dashed=1;labelBackgroundColor=none;rounded=0;entryX=0.5;entryY=1;entryDx=0;entryDy=0;" edge="1" parent="1" target="GKldJ9haFm8FNP-T8m_G-5">
          <mxGeometry width="160" relative="1" as="geometry">
            <mxPoint x="683.5850326381333" y="500.0459317782006" as="sourcePoint" />
            <mxPoint x="520" y="480" as="targetPoint" />
          </mxGeometry>
        </mxCell>
        <mxCell id="GKldJ9haFm8FNP-T8m_G-26" value="&lt;br&gt;extension points&lt;br&gt;check quality" style="html=1;shape=mxgraph.sysml.useCaseExtPt;whiteSpace=wrap;align=center;" vertex="1" parent="1">
          <mxGeometry x="600" y="500" width="160" height="80" as="geometry" />
        </mxCell>
        <mxCell id="GKldJ9haFm8FNP-T8m_G-27" value="manage stocks" style="resizable=0;html=1;verticalAlign=middle;align=center;labelBackgroundColor=none;fontStyle=1;" connectable="0" vertex="1" parent="GKldJ9haFm8FNP-T8m_G-26">
          <mxGeometry x="80" y="17" as="geometry" />
        </mxCell>
      </root>
    </mxGraphModel>
  </diagram>
</mxfile>
